<mxfile host="app.diagrams.net" modified="2024-06-11T12:34:40.094Z" agent="Mozilla/5.0 (Windows NT 10.0; Win64; x64) AppleWebKit/537.36 (KHTML, like Gecko) Chrome/125.0.0.0 Safari/537.36" version="24.5.2" etag="ssUxYfQaOo4BfjLuL9VV" type="github">
  <diagram name="Page-1" id="9c4ehvvcHiA2GcZuyrxM">
    <mxGraphModel>
      <root>
        <mxCell id="0" />
        <mxCell id="1" parent="0" />
      </root>
    </mxGraphModel>
  </diagram>
</mxfile>
